<?xml version="1.0" encoding="UTF-8"?> <svg xmlns="http://www.w3.org/2000/svg" width="274" height="131" viewBox="0 0 274 131" fill="none"> <g filter="url(#filter0_d_186_2877)"> <rect x="52.0508" y="15" width="171.864" height="47" fill="#C4C4C4"></rect> </g> <rect y="5" width="274" height="79" rx="22" fill="#8C6A55"></rect> <path d="M0 22C0 9.84974 9.84974 0 22 0H252C264.15 0 274 9.84974 274 22V38.5V57C274 69.1503 264.15 79 252 79H22C9.84974 79 0 69.1503 0 57V38.5V22Z" fill="url(#paint0_linear_186_2877)"></path> <path d="M77.744 44V35.6H85.268V44H82.94V37.64H80.072V44H77.744ZM94.2077 42.896C93.3437 43.744 92.2677 44.168 90.9797 44.168C89.6917 44.168 88.6157 43.748 87.7517 42.908C86.8957 42.06 86.4677 41.024 86.4677 39.8C86.4677 38.584 86.8997 37.552 87.7637 36.704C88.6357 35.856 89.7157 35.432 91.0037 35.432C92.2917 35.432 93.3637 35.856 94.2197 36.704C95.0837 37.544 95.5157 38.576 95.5157 39.8C95.5157 41.016 95.0797 42.048 94.2077 42.896ZM91.0037 42.068C91.6357 42.068 92.1477 41.848 92.5397 41.408C92.9397 40.968 93.1397 40.432 93.1397 39.8C93.1397 39.176 92.9357 38.644 92.5277 38.204C92.1197 37.756 91.6037 37.532 90.9797 37.532C90.3557 37.532 89.8437 37.752 89.4437 38.192C89.0517 38.632 88.8557 39.168 88.8557 39.8C88.8557 40.424 89.0557 40.96 89.4557 41.408C89.8637 41.848 90.3797 42.068 91.0037 42.068ZM97.2084 44.12C96.6644 44.12 96.2004 44.056 95.8164 43.928L95.9724 42.14C96.1164 42.172 96.2964 42.188 96.5124 42.188C96.6724 42.188 96.8044 42.164 96.9084 42.116C97.0124 42.068 97.1244 41.944 97.2444 41.744C97.3724 41.536 97.4724 41.248 97.5444 40.88C97.6164 40.504 97.6764 39.972 97.7244 39.284C97.7724 38.588 97.7964 37.748 97.7964 36.764V35.6H104.252V44H101.924V37.64H99.9684V37.964C99.9684 38.964 99.9244 39.832 99.8364 40.568C99.7484 41.304 99.6244 41.9 99.4644 42.356C99.3124 42.804 99.1164 43.164 98.8764 43.436C98.6364 43.7 98.3844 43.88 98.1204 43.976C97.8644 44.072 97.5604 44.12 97.2084 44.12ZM107.708 44.12C106.996 44.12 106.324 43.932 105.692 43.556L106.604 41.876C106.892 42.068 107.208 42.164 107.552 42.164C107.832 42.164 108.076 42.044 108.284 41.804L104.996 35.6H107.588L109.496 39.548L111.296 35.6H113.828L110.552 42.008C110.168 42.768 109.756 43.312 109.316 43.64C108.884 43.96 108.348 44.12 107.708 44.12ZM119.292 44V41.06C118.676 41.42 117.96 41.6 117.144 41.6C116.264 41.6 115.576 41.352 115.08 40.856C114.584 40.36 114.336 39.672 114.336 38.792V35.6H116.664V38.132C116.664 38.588 116.752 38.924 116.928 39.14C117.112 39.348 117.408 39.452 117.816 39.452C118.424 39.452 118.916 39.3 119.292 38.996V35.6H121.62V44H119.292ZM123.107 44V35.6H125.411V40.328L128.663 35.6H130.835V44H128.531V39.272L125.279 44H123.107ZM134.37 44V37.64H131.85V35.6H139.218V37.64H136.698V44H134.37ZM140.24 44V35.6H142.568V38.24H143.84C144.888 38.24 145.732 38.488 146.372 38.984C147.012 39.472 147.332 40.176 147.332 41.096C147.332 42 147.028 42.712 146.42 43.232C145.812 43.744 144.992 44 143.96 44H140.24ZM142.568 42.044H143.78C144.172 42.044 144.472 41.96 144.68 41.792C144.896 41.616 145.004 41.364 145.004 41.036C145.004 40.74 144.896 40.504 144.68 40.328C144.464 40.152 144.168 40.064 143.792 40.064H142.568V42.044ZM155.686 44.168C154.47 44.168 153.442 43.756 152.602 42.932C151.77 42.1 151.354 41.056 151.354 39.8C151.354 38.568 151.774 37.532 152.614 36.692C153.462 35.852 154.518 35.432 155.782 35.432C157.278 35.432 158.454 36.024 159.31 37.208L157.606 38.528C157.086 37.88 156.47 37.556 155.758 37.556C155.174 37.556 154.694 37.772 154.318 38.204C153.942 38.636 153.754 39.168 153.754 39.8C153.754 40.44 153.942 40.976 154.318 41.408C154.694 41.832 155.174 42.044 155.758 42.044C156.166 42.044 156.514 41.96 156.802 41.792C157.09 41.616 157.374 41.36 157.654 41.024L159.406 42.272C158.966 42.872 158.454 43.34 157.87 43.676C157.286 44.004 156.558 44.168 155.686 44.168ZM160.408 44V35.6H162.736V39.008L165.628 35.6H168.388L165.208 39.212L168.496 44H165.7L163.588 40.88L162.736 41.828V44H160.408ZM169.174 44V35.6H171.478V40.328L174.73 35.6H176.902V44H174.598V39.272L171.346 44H169.174ZM177.761 45.68V41.96H178.505C178.809 41.144 179.025 40.292 179.153 39.404C179.289 38.516 179.357 37.32 179.357 35.816V35.6H185.753V41.96H186.701L186.437 45.68H184.469V44H180.005L179.849 45.68H177.761ZM180.941 41.96H183.425V37.64H181.601V37.724C181.601 39.228 181.381 40.64 180.941 41.96ZM187.619 44V35.6H189.947V39.008L192.839 35.6H195.599L192.419 39.212L195.707 44H192.911L190.799 40.88L189.947 41.828V44H187.619ZM198.353 44.12C197.641 44.12 196.969 43.932 196.337 43.556L197.249 41.876C197.537 42.068 197.853 42.164 198.197 42.164C198.477 42.164 198.721 42.044 198.929 41.804L195.641 35.6H198.233L200.141 39.548L201.941 35.6H204.473L201.197 42.008C200.813 42.768 200.401 43.312 199.961 43.64C199.529 43.96 198.993 44.12 198.353 44.12Z" fill="white"></path> <defs> <filter id="filter0_d_186_2877" x="22.0508" y="15" width="231.863" height="116" filterUnits="userSpaceOnUse" color-interpolation-filters="sRGB"> <feFlood flood-opacity="0" result="BackgroundImageFix"></feFlood> <feColorMatrix in="SourceAlpha" type="matrix" values="0 0 0 0 0 0 0 0 0 0 0 0 0 0 0 0 0 0 127 0" result="hardAlpha"></feColorMatrix> <feOffset dy="39"></feOffset> <feGaussianBlur stdDeviation="15"></feGaussianBlur> <feColorMatrix type="matrix" values="0 0 0 0 0.694118 0 0 0 0 0.517647 0 0 0 0 0.411765 0 0 0 0.28 0"></feColorMatrix> <feBlend mode="normal" in2="BackgroundImageFix" result="effect1_dropShadow_186_2877"></feBlend> <feBlend mode="normal" in="SourceGraphic" in2="effect1_dropShadow_186_2877" result="shape"></feBlend> </filter> <linearGradient id="paint0_linear_186_2877" x1="137" y1="0" x2="137" y2="79" gradientUnits="userSpaceOnUse"> <stop stop-color="#BC8C71"></stop> <stop offset="0.881994" stop-color="#A4795F"></stop> <stop offset="1" stop-color="#B78C74"></stop> </linearGradient> </defs> </svg> 