<?xml version="1.0" encoding="UTF-8"?> <svg xmlns="http://www.w3.org/2000/svg" width="356" height="131" viewBox="0 0 356 131" fill="none"> <g filter="url(#filter0_d_186_3035)"> <rect x="67.5544" y="15" width="223.057" height="47" fill="#C4C4C4"></rect> </g> <rect y="5" width="355.617" height="79" rx="22" fill="#8C6A55"></rect> <path d="M0 22C0 9.84974 9.84974 0 22 0H333.617C345.767 0 355.617 9.84974 355.617 22V38.5V57C355.617 69.1503 345.767 79 333.617 79H22C9.84972 79 0 69.1503 0 57V38.5V22Z" fill="url(#paint0_linear_186_3035)"></path> <path d="M47.744 44V35.6H55.268V44H52.94V37.64H50.072V44H47.744ZM64.2077 42.896C63.3437 43.744 62.2677 44.168 60.9797 44.168C59.6917 44.168 58.6157 43.748 57.7517 42.908C56.8957 42.06 56.4677 41.024 56.4677 39.8C56.4677 38.584 56.8997 37.552 57.7637 36.704C58.6357 35.856 59.7157 35.432 61.0037 35.432C62.2917 35.432 63.3637 35.856 64.2197 36.704C65.0837 37.544 65.5157 38.576 65.5157 39.8C65.5157 41.016 65.0797 42.048 64.2077 42.896ZM61.0037 42.068C61.6357 42.068 62.1477 41.848 62.5397 41.408C62.9397 40.968 63.1397 40.432 63.1397 39.8C63.1397 39.176 62.9357 38.644 62.5277 38.204C62.1197 37.756 61.6037 37.532 60.9797 37.532C60.3557 37.532 59.8437 37.752 59.4437 38.192C59.0517 38.632 58.8557 39.168 58.8557 39.8C58.8557 40.424 59.0557 40.96 59.4557 41.408C59.8637 41.848 60.3797 42.068 61.0037 42.068ZM67.2084 44.12C66.6644 44.12 66.2004 44.056 65.8164 43.928L65.9724 42.14C66.1164 42.172 66.2964 42.188 66.5124 42.188C66.6724 42.188 66.8044 42.164 66.9084 42.116C67.0124 42.068 67.1244 41.944 67.2444 41.744C67.3724 41.536 67.4724 41.248 67.5444 40.88C67.6164 40.504 67.6764 39.972 67.7244 39.284C67.7724 38.588 67.7964 37.748 67.7964 36.764V35.6H74.2524V44H71.9244V37.64H69.9684V37.964C69.9684 38.964 69.9244 39.832 69.8364 40.568C69.7484 41.304 69.6244 41.9 69.4644 42.356C69.3124 42.804 69.1164 43.164 68.8764 43.436C68.6364 43.7 68.3844 43.88 68.1204 43.976C67.8644 44.072 67.5604 44.12 67.2084 44.12ZM77.7081 44.12C76.9961 44.12 76.3241 43.932 75.6921 43.556L76.6041 41.876C76.8921 42.068 77.2081 42.164 77.5521 42.164C77.8321 42.164 78.0761 42.044 78.2841 41.804L74.9961 35.6H77.5881L79.4961 39.548L81.2961 35.6H83.8281L80.5521 42.008C80.1681 42.768 79.7561 43.312 79.3161 43.64C78.8841 43.96 78.3481 44.12 77.7081 44.12ZM89.292 44V41.06C88.676 41.42 87.96 41.6 87.144 41.6C86.264 41.6 85.576 41.352 85.08 40.856C84.584 40.36 84.336 39.672 84.336 38.792V35.6H86.664V38.132C86.664 38.588 86.752 38.924 86.928 39.14C87.112 39.348 87.408 39.452 87.816 39.452C88.424 39.452 88.916 39.3 89.292 38.996V35.6H91.62V44H89.292ZM93.1073 44V35.6H95.4113V40.328L98.6633 35.6H100.835V44H98.5313V39.272L95.2793 44H93.1073ZM104.37 44V37.64H101.85V35.6H109.218V37.64H106.698V44H104.37ZM110.24 44V35.6H112.568V38.24H113.84C114.888 38.24 115.732 38.488 116.372 38.984C117.012 39.472 117.332 40.176 117.332 41.096C117.332 42 117.028 42.712 116.42 43.232C115.812 43.744 114.992 44 113.96 44H110.24ZM112.568 42.044H113.78C114.172 42.044 114.472 41.96 114.68 41.792C114.896 41.616 115.004 41.364 115.004 41.036C115.004 40.74 114.896 40.504 114.68 40.328C114.464 40.152 114.168 40.064 113.792 40.064H112.568V42.044ZM121.642 44V35.6H123.946V40.328L127.198 35.6H129.37V44H127.066V39.272L123.814 44H121.642ZM130.853 44V35.6H133.181V38.744H136.169V35.6H138.497V44H136.169V40.808H133.181V44H130.853ZM139.358 45.68V41.96H140.102C140.406 41.144 140.622 40.292 140.75 39.404C140.886 38.516 140.954 37.32 140.954 35.816V35.6H147.35V41.96H148.298L148.034 45.68H146.066V44H141.602L141.446 45.68H139.358ZM142.538 41.96H145.022V37.64H143.198V37.724C143.198 39.228 142.978 40.64 142.538 41.96ZM149.217 44V35.6H151.521V40.328L154.773 35.6H156.945V44H154.641V39.272L151.389 44H149.217ZM158.428 44V35.6H162.736C163.76 35.6 164.524 35.852 165.028 36.356C165.388 36.716 165.568 37.176 165.568 37.736C165.568 38.608 165.136 39.232 164.272 39.608C164.816 39.784 165.228 40.036 165.508 40.364C165.796 40.692 165.94 41.132 165.94 41.684C165.94 42.404 165.66 42.972 165.1 43.388C164.54 43.796 163.76 44 162.76 44H158.428ZM160.696 42.128H162.496C163.24 42.128 163.612 41.864 163.612 41.336C163.612 40.832 163.232 40.58 162.472 40.58H160.696V42.128ZM160.696 38.948H162.16C162.896 38.948 163.264 38.696 163.264 38.192C163.264 37.712 162.912 37.472 162.208 37.472H160.696V38.948ZM167.006 44V35.6H169.31V40.328L172.562 35.6H174.734V44H172.43V39.272L169.178 44H167.006ZM175.593 45.68V41.96H176.337C176.641 41.144 176.857 40.292 176.985 39.404C177.121 38.516 177.189 37.32 177.189 35.816V35.6H183.585V41.96H184.533L184.269 45.68H182.301V44H177.837L177.681 45.68H175.593ZM178.773 41.96H181.257V37.64H179.433V37.724C179.433 39.228 179.213 40.64 178.773 41.96ZM187.419 44.12C186.707 44.12 186.035 43.932 185.403 43.556L186.315 41.876C186.603 42.068 186.919 42.164 187.263 42.164C187.543 42.164 187.787 42.044 187.995 41.804L184.707 35.6H187.299L189.207 39.548L191.007 35.6H193.539L190.263 42.008C189.879 42.768 189.467 43.312 189.027 43.64C188.595 43.96 188.059 44.12 187.419 44.12ZM193.615 44L197.191 35.54H199.435L203.011 44H200.515L199.903 42.5H196.663L196.063 44H193.615ZM197.347 40.688H199.231L198.295 38.3L197.347 40.688ZM204.306 44.12C203.762 44.12 203.298 44.056 202.914 43.928L203.07 42.14C203.214 42.172 203.394 42.188 203.61 42.188C203.77 42.188 203.902 42.164 204.006 42.116C204.11 42.068 204.222 41.944 204.342 41.744C204.47 41.536 204.57 41.248 204.642 40.88C204.714 40.504 204.774 39.972 204.822 39.284C204.87 38.588 204.894 37.748 204.894 36.764V35.6H211.35V44H209.022V37.64H207.066V37.964C207.066 38.964 207.022 39.832 206.934 40.568C206.846 41.304 206.722 41.9 206.562 42.356C206.41 42.804 206.214 43.164 205.974 43.436C205.734 43.7 205.482 43.88 205.218 43.976C204.962 44.072 204.658 44.12 204.306 44.12ZM212.838 44V35.6H215.166V38.24H216.438C217.486 38.24 218.33 38.488 218.97 38.984C219.61 39.472 219.93 40.176 219.93 41.096C219.93 42 219.626 42.712 219.018 43.232C218.41 43.744 217.59 44 216.558 44H212.838ZM215.166 42.044H216.378C216.77 42.044 217.07 41.96 217.278 41.792C217.494 41.616 217.602 41.364 217.602 41.036C217.602 40.74 217.494 40.504 217.278 40.328C217.062 40.152 216.766 40.064 216.39 40.064H215.166V42.044ZM220.912 44V35.6H223.24V38.744H226.228V35.6H228.556V44H226.228V40.808H223.24V44H220.912ZM230.041 44V35.6H232.369V38.24H233.641C234.689 38.24 235.533 38.488 236.173 38.984C236.813 39.472 237.133 40.176 237.133 41.096C237.133 42 236.829 42.712 236.221 43.232C235.613 43.744 234.793 44 233.761 44H230.041ZM232.369 42.044H233.581C233.973 42.044 234.273 41.96 234.481 41.792C234.697 41.616 234.805 41.364 234.805 41.036C234.805 40.74 234.697 40.504 234.481 40.328C234.265 40.152 233.969 40.064 233.593 40.064H232.369V42.044ZM238.117 44V35.6H240.445V44H238.117ZM241.935 44V35.6H244.239V40.328L247.491 35.6H249.663V44H247.359V39.272L244.107 44H241.935ZM245.871 35.06C245.295 35.06 244.819 34.9 244.443 34.58C244.075 34.26 243.847 33.808 243.759 33.224L245.031 32.996C245.207 33.476 245.487 33.716 245.871 33.716C246.263 33.716 246.547 33.476 246.723 32.996L247.995 33.224C247.907 33.808 247.675 34.26 247.299 34.58C246.931 34.9 246.455 35.06 245.871 35.06ZM254.474 44V35.6H261.998V44H259.67V37.64H256.802V44H254.474ZM270.938 42.896C270.074 43.744 268.998 44.168 267.71 44.168C266.422 44.168 265.346 43.748 264.482 42.908C263.626 42.06 263.198 41.024 263.198 39.8C263.198 38.584 263.63 37.552 264.494 36.704C265.366 35.856 266.446 35.432 267.734 35.432C269.022 35.432 270.094 35.856 270.95 36.704C271.814 37.544 272.246 38.576 272.246 39.8C272.246 41.016 271.81 42.048 270.938 42.896ZM267.734 42.068C268.366 42.068 268.878 41.848 269.27 41.408C269.67 40.968 269.87 40.432 269.87 39.8C269.87 39.176 269.666 38.644 269.258 38.204C268.85 37.756 268.334 37.532 267.71 37.532C267.086 37.532 266.574 37.752 266.174 38.192C265.782 38.632 265.586 39.168 265.586 39.8C265.586 40.424 265.786 40.96 266.186 41.408C266.594 41.848 267.11 42.068 267.734 42.068ZM272.835 45.68V41.96H273.579C273.883 41.144 274.099 40.292 274.227 39.404C274.363 38.516 274.431 37.32 274.431 35.816V35.6H280.827V41.96H281.775L281.511 45.68H279.543V44H275.079L274.923 45.68H272.835ZM276.015 41.96H278.499V37.64H276.675V37.724C276.675 39.228 276.455 40.64 276.015 41.96ZM282.693 44V35.6H289.449V37.58H285.021V38.552H286.641C287.657 38.552 288.473 38.784 289.089 39.248C289.705 39.704 290.013 40.372 290.013 41.252C290.013 42.116 289.721 42.792 289.137 43.28C288.553 43.76 287.761 44 286.761 44H282.693ZM285.021 42.044H286.581C286.933 42.044 287.205 41.968 287.397 41.816C287.589 41.664 287.685 41.444 287.685 41.156C287.685 40.892 287.585 40.684 287.385 40.532C287.193 40.38 286.929 40.304 286.593 40.304H285.021V42.044ZM298.548 42.896C297.684 43.744 296.608 44.168 295.32 44.168C294.032 44.168 292.956 43.748 292.092 42.908C291.236 42.06 290.808 41.024 290.808 39.8C290.808 38.584 291.24 37.552 292.104 36.704C292.976 35.856 294.056 35.432 295.344 35.432C296.632 35.432 297.704 35.856 298.56 36.704C299.424 37.544 299.856 38.576 299.856 39.8C299.856 41.016 299.42 42.048 298.548 42.896ZM295.344 42.068C295.976 42.068 296.488 41.848 296.88 41.408C297.28 40.968 297.48 40.432 297.48 39.8C297.48 39.176 297.276 38.644 296.868 38.204C296.46 37.756 295.944 37.532 295.32 37.532C294.696 37.532 294.184 37.752 293.784 38.192C293.392 38.632 293.196 39.168 293.196 39.8C293.196 40.424 293.396 40.96 293.796 41.408C294.204 41.848 294.72 42.068 295.344 42.068ZM301.068 44V35.6H304.668C305.74 35.6 306.588 35.864 307.212 36.392C307.844 36.912 308.16 37.64 308.16 38.576C308.16 39.536 307.828 40.28 307.164 40.808C306.5 41.336 305.628 41.6 304.548 41.6H303.396V44H301.068ZM303.396 39.776H304.5C304.916 39.776 305.24 39.676 305.472 39.476C305.712 39.276 305.832 39.004 305.832 38.66C305.832 38.3 305.712 38.028 305.472 37.844C305.24 37.652 304.912 37.556 304.488 37.556H303.396V39.776Z" fill="white"></path> <defs> <filter id="filter0_d_186_3035" x="37.5544" y="15" width="283.057" height="116" filterUnits="userSpaceOnUse" color-interpolation-filters="sRGB"> <feFlood flood-opacity="0" result="BackgroundImageFix"></feFlood> <feColorMatrix in="SourceAlpha" type="matrix" values="0 0 0 0 0 0 0 0 0 0 0 0 0 0 0 0 0 0 127 0" result="hardAlpha"></feColorMatrix> <feOffset dy="39"></feOffset> <feGaussianBlur stdDeviation="15"></feGaussianBlur> <feColorMatrix type="matrix" values="0 0 0 0 0.694118 0 0 0 0 0.517647 0 0 0 0 0.411765 0 0 0 0.28 0"></feColorMatrix> <feBlend mode="normal" in2="BackgroundImageFix" result="effect1_dropShadow_186_3035"></feBlend> <feBlend mode="normal" in="SourceGraphic" in2="effect1_dropShadow_186_3035" result="shape"></feBlend> </filter> <linearGradient id="paint0_linear_186_3035" x1="177.808" y1="0" x2="177.808" y2="79" gradientUnits="userSpaceOnUse"> <stop stop-color="#BC8C71"></stop> <stop offset="0.881994" stop-color="#A4795F"></stop> <stop offset="1" stop-color="#B78C74"></stop> </linearGradient> </defs> </svg> 